<svg width="144" height="67" viewBox="0 0 144 67" fill="none" xmlns="http://www.w3.org/2000/svg">
<path d="M15.504 37.928H10.848V59H4.032V37.928H1.008V32.408H4.032V31.064C4.032 27.8 4.96 25.4 6.816 23.864C8.672 22.328 11.472 21.608 15.216 21.704V27.368C13.584 27.336 12.448 27.608 11.808 28.184C11.168 28.76 10.848 29.8 10.848 31.304V32.408H15.504V37.928ZM23.2669 29.24C22.0829 29.24 21.0909 28.872 20.2909 28.136C19.5229 27.368 19.1389 26.424 19.1389 25.304C19.1389 24.184 19.5229 23.256 20.2909 22.52C21.0909 21.752 22.0829 21.368 23.2669 21.368C24.4509 21.368 25.4269 21.752 26.1949 22.52C26.9949 23.256 27.3949 24.184 27.3949 25.304C27.3949 26.424 26.9949 27.368 26.1949 28.136C25.4269 28.872 24.4509 29.24 23.2669 29.24ZM26.5789 32.408V59H19.8589V32.408H26.5789ZM47.9543 32.024C51.1223 32.024 53.6823 33.032 55.6343 35.048C57.5863 37.032 58.5623 39.816 58.5623 43.4V59H51.8423V44.312C51.8423 42.2 51.3143 40.584 50.2583 39.464C49.2023 38.312 47.7623 37.736 45.9383 37.736C44.0823 37.736 42.6103 38.312 41.5223 39.464C40.4663 40.584 39.9383 42.2 39.9383 44.312V59H33.2183V32.408H39.9383V35.72C40.8343 34.568 41.9703 33.672 43.3463 33.032C44.7543 32.36 46.2903 32.024 47.9543 32.024ZM63.2246 45.608C63.2246 42.92 63.7526 40.536 64.8086 38.456C65.8966 36.376 67.3686 34.776 69.2246 33.656C71.0806 32.536 73.1446 31.976 75.4166 31.976C77.1446 31.976 78.7926 32.36 80.3606 33.128C81.9286 33.864 83.1766 34.856 84.1046 36.104V23.48H90.9206V59H84.1046V55.064C83.2726 56.376 82.1046 57.432 80.6006 58.232C79.0966 59.032 77.3526 59.432 75.3686 59.432C73.1286 59.432 71.0806 58.856 69.2246 57.704C67.3686 56.552 65.8966 54.936 64.8086 52.856C63.7526 50.744 63.2246 48.328 63.2246 45.608ZM84.1526 45.704C84.1526 44.072 83.8326 42.68 83.1926 41.528C82.5526 40.344 81.6886 39.448 80.6006 38.84C79.5126 38.2 78.3446 37.88 77.0966 37.88C75.8486 37.88 74.6966 38.184 73.6406 38.792C72.5846 39.4 71.7206 40.296 71.0486 41.48C70.4086 42.632 70.0886 44.008 70.0886 45.608C70.0886 47.208 70.4086 48.616 71.0486 49.832C71.7206 51.016 72.5846 51.928 73.6406 52.568C74.7286 53.208 75.8806 53.528 77.0966 53.528C78.3446 53.528 79.5126 53.224 80.6006 52.616C81.6886 51.976 82.5526 51.08 83.1926 49.928C83.8326 48.744 84.1526 47.336 84.1526 45.704ZM122.204 45.128C122.204 46.088 122.14 46.952 122.012 47.72H102.572C102.732 49.64 103.404 51.144 104.588 52.232C105.772 53.32 107.228 53.864 108.956 53.864C111.452 53.864 113.228 52.792 114.284 50.648H121.532C120.764 53.208 119.292 55.32 117.116 56.984C114.94 58.616 112.268 59.432 109.1 59.432C106.54 59.432 104.236 58.872 102.188 57.752C100.172 56.6 98.5879 54.984 97.4359 52.904C96.3159 50.824 95.7559 48.424 95.7559 45.704C95.7559 42.952 96.3159 40.536 97.4359 38.456C98.5559 36.376 100.124 34.776 102.14 33.656C104.156 32.536 106.476 31.976 109.1 31.976C111.628 31.976 113.884 32.52 115.868 33.608C117.884 34.696 119.436 36.248 120.524 38.264C121.644 40.248 122.204 42.536 122.204 45.128ZM115.244 43.208C115.212 41.48 114.588 40.104 113.372 39.08C112.156 38.024 110.668 37.496 108.908 37.496C107.244 37.496 105.836 38.008 104.684 39.032C103.564 40.024 102.876 41.416 102.62 43.208H115.244ZM133.829 36.536C134.693 35.128 135.813 34.024 137.189 33.224C138.597 32.424 140.197 32.024 141.989 32.024V39.08H140.213C138.101 39.08 136.501 39.576 135.413 40.568C134.357 41.56 133.829 43.288 133.829 45.752V59H127.109V32.408H133.829V36.536Z" fill="#07402B"/>
<path d="M0 63.8H143.189V66.2H0V63.8Z" fill="#07402B"/>
<path d="M1.20001 9.25001C1.20001 7.53334 1.57501 6.00001 2.32501 4.65001C3.07501 3.28334 4.10001 2.22501 5.40001 1.47501C6.70001 0.708345 8.15001 0.325012 9.75001 0.325012C11.7 0.325012 13.3667 0.791678 14.75 1.72501C16.15 2.64168 17.1667 3.94168 17.8 5.62501H15.75C15.25 4.44168 14.4833 3.51668 13.45 2.85001C12.4333 2.18334 11.2 1.85001 9.75001 1.85001C8.46668 1.85001 7.30834 2.15001 6.27501 2.75001C5.25834 3.35001 4.45834 4.21668 3.87501 5.35001C3.29168 6.46668 3.00001 7.76668 3.00001 9.25001C3.00001 10.7333 3.29168 12.0333 3.87501 13.15C4.45834 14.2667 5.25834 15.125 6.27501 15.725C7.30834 16.325 8.46668 16.625 9.75001 16.625C11.2 16.625 12.4333 16.3 13.45 15.65C14.4833 14.9833 15.25 14.0667 15.75 12.9H17.8C17.1667 14.5667 16.15 15.8583 14.75 16.775C13.35 17.6917 11.6833 18.15 9.75001 18.15C8.15001 18.15 6.70001 17.775 5.40001 17.025C4.10001 16.2583 3.07501 15.2 2.32501 13.85C1.57501 12.5 1.20001 10.9667 1.20001 9.25001ZM34.4621 18H32.7121L23.0371 3.30001V18H21.2871V0.52501H23.0371L32.7121 15.2V0.52501H34.4621V18ZM49.6008 5.55001C49.6008 7.05001 49.1091 8.25834 48.1258 9.17501C47.1424 10.0917 45.6674 10.55 43.7008 10.55H40.1758V18H38.4258V0.52501H43.7008C45.6508 0.52501 47.1174 0.983344 48.1008 1.90001C49.1008 2.81668 49.6008 4.03334 49.6008 5.55001ZM43.7008 9.05001C46.4341 9.05001 47.8008 7.88334 47.8008 5.55001C47.8008 4.38334 47.4758 3.50001 46.8258 2.90001C46.1758 2.30001 45.1341 2.00001 43.7008 2.00001H40.1758V9.05001H43.7008ZM60.6121 0.52501V13.75C60.6121 15.0833 60.2038 16.1583 59.3871 16.975C58.5704 17.775 57.4788 18.175 56.1121 18.175C54.6954 18.175 53.5621 17.75 52.7121 16.9C51.8788 16.0333 51.4621 14.8667 51.4621 13.4H53.2371C53.2538 14.35 53.4871 15.125 53.9371 15.725C54.4038 16.325 55.1288 16.625 56.1121 16.625C57.0454 16.625 57.7371 16.35 58.1871 15.8C58.6371 15.25 58.8621 14.5667 58.8621 13.75V0.52501H60.6121Z" fill="#656565"/>
</svg>
